<svg xmlns="http://www.w3.org/2000/svg" width="1920" height="1080" viewBox="0 0 1920 1080">
  <rect width="1920" height="1080" fill="#3d8b40"/>
  <rect width="1920" height="1080" fill="#000" opacity="0.3"/>
  
  <!-- Mountains in the background -->
  <polygon points="0,1080 0,600 300,800 600,650 900,820 1200,600 1500,750 1800,620 1920,700 1920,1080" fill="#2c6a2f"/>
  
  <!-- Trees -->
  <circle cx="300" cy="900" r="80" fill="#2c6a2f"/>
  <circle cx="300" cy="840" r="60" fill="#4caf50"/>
  <circle cx="300" cy="790" r="45" fill="#5cb85c"/>
  
  <circle cx="600" cy="950" r="100" fill="#2c6a2f"/>
  <circle cx="600" cy="880" r="80" fill="#4caf50"/>
  <circle cx="600" cy="820" r="65" fill="#5cb85c"/>
  
  <circle cx="1000" cy="920" r="90" fill="#2c6a2f"/>
  <circle cx="1000" cy="850" r="70" fill="#4caf50"/>
  <circle cx="1000" cy="800" r="50" fill="#5cb85c"/>
  
  <circle cx="1400" cy="930" r="95" fill="#2c6a2f"/>
  <circle cx="1400" cy="860" r="75" fill="#4caf50"/>
  <circle cx="1400" cy="810" r="55" fill="#5cb85c"/>
  
  <circle cx="1700" cy="900" r="85" fill="#2c6a2f"/>
  <circle cx="1700" cy="840" r="65" fill="#4caf50"/>
  <circle cx="1700" cy="790" r="50" fill="#5cb85c"/>
  
  <!-- Ground -->
  <rect x="0" y="1000" width="1920" height="80" fill="#3a8a3d"/>
</svg> 